<svg width="24" height="24" viewBox="0 0 24 24" fill="none" xmlns="http://www.w3.org/2000/svg">
<path d="M21.44 11.05L12.25 2.05C12.1128 1.91697 11.9434 1.81931 11.7579 1.76505C11.5723 1.71079 11.3757 1.70151 11.1857 1.73807C11.0458 1.76583 10.9143 1.82437 10.8006 1.90906C10.6869 1.99376 10.5941 2.10234 10.53 2.23L8.5 6.5H3C2.46957 6.5 1.96086 6.71071 1.58579 7.08579C1.21071 7.46086 1 7.96957 1 8.5V15.5C1 16.0304 1.21071 16.5391 1.58579 16.9142C1.96086 17.2893 2.46957 17.5 3 17.5H8.5L10.53 21.77C10.5941 21.8977 10.6869 22.0062 10.8006 22.0909C10.9143 22.1756 11.0458 22.2342 11.1857 22.2619C11.3757 22.2985 11.5723 22.2892 11.7579 22.235C11.9434 22.1807 12.1128 22.083 12.25 21.95L21.44 12.95C21.6122 12.7778 21.7082 12.5455 21.7082 12.3C21.7082 12.0545 21.6122 11.8222 21.44 11.65V11.05Z" stroke="currentColor" stroke-width="2" stroke-linecap="round" stroke-linejoin="round"/>
</svg>
